<?xml version="1.0" encoding="UTF-8" standalone="no"?>


<svg
   xmlns:dc="http://purl.org/dc/elements/1.1/"
   xmlns:cc="http://creativecommons.org/ns#"
   xmlns:rdf="http://www.w3.org/1999/02/22-rdf-syntax-ns#"
   xmlns:svg="http://www.w3.org/2000/svg"
   xmlns="http://www.w3.org/2000/svg"
   xmlns:sodipodi="http://sodipodi.sourceforge.net/DTD/sodipodi-0.dtd"
   xmlns:inkscape="http://www.inkscape.org/namespaces/inkscape"
   width="76mm"
   height="76mm"
   viewBox="0 0 269.2912 269.29134"
   id="svg2"
   version="1.1"
   inkscape:version="0.91 r13725"
   sodipodi:docname="logo.svg">
  <defs
     id="defs4" />
  <sodipodi:namedview
     id="base"
     pagecolor="#ffffff"
     bordercolor="#666666"
     borderopacity="1.0"
     inkscape:pageopacity="0.0"
     inkscape:pageshadow="2"
     inkscape:zoom="0.98994949"
     inkscape:cx="408.1961"
     inkscape:cy="177.15976"
     inkscape:document-units="px"
     inkscape:current-layer="layer1"
     showgrid="false" />
  <metadata
     id="metadata7">
    <rdf:RDF>
      <cc:Work
         rdf:about="">
        <dc:format>image/svg+xml</dc:format>
        <dc:type
           rdf:resource="http://purl.org/dc/dcmitype/StillImage" />
        <dc:title></dc:title>
      </cc:Work>
    </rdf:RDF>
  </metadata>
  <g
     inkscape:label="Layer 1"
     inkscape:groupmode="layer"
     id="layer1"
     transform="translate(0,-783.07091)">
    <circle
       style="opacity:1;fill:#141414;fill-opacity:1;fill-rule:evenodd;stroke:none;stroke-width:0.1;stroke-miterlimit:4;stroke-dasharray:none;stroke-opacity:1"
       id="path4136"
       cx="135.48482"
       cy="918.48651"
       r="131.82491" />
    <circle
       r="110.10663"
       cy="918.48651"
       cx="135.48482"
       id="circle4167"
       style="opacity:1;fill:#282828;fill-opacity:1;fill-rule:evenodd;stroke:none;stroke-width:14.13700008;stroke-linecap:butt;stroke-miterlimit:4;stroke-dasharray:none;stroke-opacity:1" />
    <path
       style="opacity:1;fill:none;fill-opacity:1;fill-rule:evenodd;stroke:#7d7d7d;stroke-width:9.23700047;stroke-miterlimit:4;stroke-dasharray:none;stroke-opacity:1"
       d="m 165.49947,877.0705 a 41.416256,41.416256 0 0 0 -41.41602,41.41601 41.416256,41.416256 0 0 0 41.41602,41.41602 41.416256,41.416256 0 0 0 41.41601,-41.41602 41.416256,41.416256 0 0 0 -41.41601,-41.41601 z m -73.70508,13.67578 a 27.740156,27.740156 0 0 0 -27.74023,27.74023 27.740156,27.740156 0 0 0 27.74023,27.74024 27.740156,27.740156 0 0 0 27.74024,-27.74024 27.740156,27.740156 0 0 0 -27.74024,-27.74023 z"
       id="path4146"
       inkscape:connector-curvature="0" />
    <circle
       style="opacity:1;fill:none;fill-opacity:1;fill-rule:evenodd;stroke:#585858;stroke-width:14.13700008;stroke-linecap:butt;stroke-miterlimit:4;stroke-dasharray:none;stroke-opacity:1"
       id="path4159"
       cx="135.48482"
       cy="918.48651"
       r="110.10663" />
  </g>
</svg>
